<?xml version="1.0" standalone="no"?>
<!DOCTYPE svg PUBLIC "-//W3C//DTD SVG 20010904//EN"
 "http://www.w3.org/TR/2001/REC-SVG-20010904/DTD/svg10.dtd">
<svg version="1.0" xmlns="http://www.w3.org/2000/svg"
 width="1360.000000pt" height="681.000000pt" viewBox="0 0 1360.000000 681.000000"
 preserveAspectRatio="xMidYMid meet">

<g transform="translate(0.000000,681.000000) scale(0.100000,-0.100000)"
fill="#000000" stroke="none">
<path d="M0 6600 l0 -210 6730 0 6730 0 0 -3195 0 -3195 70 0 70 0 0 3405 0
3405 -6800 0 -6800 0 0 -210z m180 35 l-34 -35 34 -35 c18 -19 31 -37 29 -40
-3 -2 -23 13 -44 35 l-39 40 39 40 c21 22 41 37 44 35 2 -3 -11 -21 -29 -40z
m647 23 c29 -27 30 -58 2 -58 -15 0 -19 5 -17 22 2 15 -5 27 -24 37 -32 19
-54 9 -78 -32 -13 -24 -13 -28 6 -54 22 -29 56 -35 99 -19 17 6 16 4 -5 -14
-29 -26 -76 -21 -102 11 -24 29 -23 84 2 109 28 28 87 27 117 -2z m1483 -59
c0 -80 0 -81 -22 -74 -13 4 -30 7 -38 7 -8 0 -25 -3 -37 -7 -23 -7 -23 -6 -23
74 l0 81 60 0 60 0 0 -81z m7897 -41 c-2 -24 -4 -5 -4 42 0 47 2 66 4 43 2
-24 2 -62 0 -85z m1747 103 c12 -13 14 -21 6 -26 -6 -3 -9 -14 -8 -23 2 -9 -2
-16 -9 -15 -6 1 -27 -15 -47 -37 -65 -72 -112 -40 -51 34 19 24 35 47 35 52 0
8 33 29 51 33 3 0 14 -8 23 -18z m251 9 c3 -5 15 -10 26 -10 14 0 19 -7 19
-30 0 -16 5 -30 10 -30 14 0 13 -20 -2 -53 -10 -19 -20 -27 -40 -27 -15 0 -30
5 -34 11 -4 8 -9 8 -17 0 -6 -6 -21 -11 -33 -11 -21 0 -22 4 -22 70 1 67 2 70
24 70 13 0 24 5 24 10 0 6 9 10 19 10 11 0 23 -4 26 -10z m363 -72 l3 -78 -81
0 -80 0 0 73 c0 41 3 77 7 81 4 4 39 5 78 4 l70 -3 3 -77z m542 58 c5 -13 18
-27 29 -31 28 -9 26 -29 -3 -43 -13 -6 -27 -20 -31 -31 -8 -27 -35 -27 -42 0
-3 11 -16 25 -29 30 -30 11 -31 39 -3 46 11 3 25 16 30 29 11 31 37 31 49 0z
m-12634 -18 l29 -33 -32 29 c-31 28 -38 36 -30 36 2 0 16 -15 33 -32z m9259
12 c11 -13 16 -30 13 -50 -3 -18 1 -35 9 -41 7 -6 13 -16 13 -22 0 -6 -7 -4
-16 5 -11 11 -27 14 -53 11 -44 -6 -71 15 -71 54 0 56 68 84 105 43z m365 -15
c0 -7 -8 -19 -17 -26 -15 -12 -16 -12 -10 4 14 38 -41 13 -59 -27 -9 -22 -13
-25 -14 -12 0 26 38 66 63 66 14 0 17 5 13 16 -5 14 -4 15 9 4 8 -7 15 -18 15
-25z m355 13 c6 -5 5 -15 -3 -28 -6 -11 -12 -25 -12 -32 0 -7 -9 -19 -20 -26
-25 -15 -60 0 -60 26 0 10 -5 23 -11 29 -17 17 -4 41 23 46 28 5 70 -2 83 -15z
m2401 8 c9 -9 14 -35 14 -70 l0 -56 -80 0 -80 0 0 70 0 70 66 0 c43 0 70 -5
80 -14z m-10231 -6 c3 -5 17 -10 31 -10 13 0 24 -4 24 -10 0 -5 -10 -10 -22
-10 -13 0 -29 -4 -37 -9 -20 -13 -41 -2 -41 19 0 25 33 39 45 20z m10845 0 c0
-6 -33 -10 -80 -10 -47 0 -80 4 -80 10 0 6 33 10 80 10 47 0 80 -4 80 -10z
m-10470 -27 c0 -21 3 -24 12 -15 19 19 46 14 54 -10 l7 -23 8 23 c10 25 29 21
29 -6 1 -13 5 -11 16 8 l15 25 -5 -25 c-3 -14 -6 -31 -6 -37 0 -21 -20 -15
-29 9 l-8 23 -7 -23 c-10 -31 -23 -28 -31 8 -7 32 -14 37 -33 18 -9 -9 -8 -16
5 -30 18 -20 4 -25 -15 -6 -9 9 -12 9 -12 0 0 -7 -4 -12 -10 -12 -5 0 -10 23
-10 50 0 28 5 50 10 50 6 0 10 -12 10 -27z m237 -50 c-2 -16 -4 -3 -4 27 0 30
2 43 4 28 2 -16 2 -40 0 -55z m43 27 c0 -27 -4 -50 -10 -50 -5 0 -10 23 -10
50 0 28 5 50 10 50 6 0 10 -22 10 -50z m180 0 c0 -46 -2 -50 -24 -50 -52 0
-59 61 -7 68 11 2 21 10 21 18 0 8 2 14 5 14 3 0 5 -22 5 -50z m260 36 c0 -7
9 -16 20 -19 15 -4 20 -13 19 -39 l-1 -33 -7 29 c-9 41 -31 46 -31 7 0 -17 -4
-31 -10 -31 -5 0 -10 23 -10 50 0 28 5 50 10 50 6 0 10 -6 10 -14z m470 -36
c0 -27 -4 -50 -10 -50 -5 0 -10 23 -10 50 0 28 5 50 10 50 6 0 10 -22 10 -50z
m-639 20 c12 0 21 -10 26 -27 l6 -28 10 28 c5 15 13 27 18 27 18 0 -28 -95
-47 -97 -11 -2 -13 0 -6 3 22 10 7 84 -18 84 -15 0 -12 -47 3 -53 7 -3 5 -6
-5 -6 -13 -1 -18 7 -18 29 0 17 -4 30 -10 30 -5 0 -10 -13 -10 -30 0 -16 -4
-30 -10 -30 -5 0 -10 16 -10 35 0 28 4 35 20 35 11 0 20 6 21 13 0 10 2 10 6
0 2 -7 13 -13 24 -13z m335 5 c9 -8 11 -15 5 -15 -6 0 -11 -11 -11 -25 0 -27
15 -34 24 -10 3 8 15 15 26 15 13 0 18 4 15 11 -4 6 -13 8 -21 5 -8 -3 -14 -1
-14 4 0 6 11 10 25 10 22 0 25 -4 25 -35 l0 -35 -47 2 c-44 3 -48 5 -54 33 -5
29 -2 55 8 55 2 0 11 -7 19 -15z m6154 -85 c37 0 60 4 63 13 3 7 6 5 6 -5 1
-16 -9 -18 -69 -18 l-70 0 2 53 2 52 3 -47 4 -48 59 0z m-7150 45 c0 -19 -4
-35 -10 -35 -5 0 -10 16 -10 35 0 19 5 35 10 35 6 0 10 -16 10 -35z m78 -2 c2
-19 -1 -33 -7 -33 -6 0 -11 14 -11 31 0 38 -24 35 -28 -4 -5 -40 -22 -33 -22
9 0 34 1 35 33 32 28 -3 32 -7 35 -35z m242 17 c9 -18 8 -20 -15 -20 -31 0
-33 -17 -2 -23 15 -4 12 -5 -8 -4 -30 2 -43 22 -31 53 8 21 44 17 56 -6z m168
-17 c3 -31 1 -33 -27 -33 -36 0 -44 28 -11 37 11 3 20 10 20 15 0 6 -7 8 -15
4 -8 -3 -15 -1 -15 5 0 6 10 9 23 7 17 -2 23 -11 25 -35z m302 1 c0 -33 -2
-35 -27 -32 -35 4 -37 30 -3 38 17 4 21 8 12 14 -6 4 -16 4 -22 1 -5 -3 -10
-1 -10 4 0 6 11 11 25 11 22 0 25 -4 25 -36z m159 17 c13 -24 -8 -55 -34 -50
-28 6 -42 34 -26 53 18 22 48 20 60 -3z m232 3 c9 -11 10 -20 2 -32 -15 -24
-44 -27 -59 -7 -28 38 27 75 57 39z m83 0 c9 -24 7 -54 -3 -54 -5 0 -11 11
-13 25 -4 35 -22 36 -26 3 -5 -40 -22 -34 -22 7 0 32 3 35 29 35 17 0 31 -6
35 -16z m66 -19 c0 -19 -4 -35 -10 -35 -5 0 -10 16 -10 35 0 19 5 35 10 35 6
0 10 -16 10 -35z m78 -2 c2 -19 -1 -33 -7 -33 -6 0 -11 14 -11 31 0 39 -22 34
-31 -7 -6 -27 -7 -26 -8 9 -1 36 1 38 27 35 22 -2 28 -8 30 -35z m72 33 c0 -2
3 -11 6 -19 4 -11 -2 -17 -23 -19 l-28 -4 25 -12 25 -12 -24 3 c-32 3 -49 30
-32 51 12 14 51 23 51 12z m6400 -47 c0 -5 -16 -9 -35 -9 l-34 0 17 30 17 30
18 -21 c9 -12 17 -25 17 -30z m2663 24 c-24 -2 -62 -2 -85 0 -24 2 -5 4 42 4
47 0 66 -2 43 -4z m-12933 -6 c0 -2 -12 -14 -27 -28 l-28 -24 24 28 c23 25 31
32 31 24z m2198 -18 c4 -20 -27 -34 -42 -19 -5 5 -20 10 -33 10 -32 0 -29 18
5 23 45 7 67 3 70 -14z m612 -9 c0 -5 -4 -10 -10 -10 -5 0 -10 5 -10 10 0 6 5
10 10 10 6 0 10 -4 10 -10z m9849 -26 c-9 -11 -15 -12 -25 -3 -11 9 -12 15 -3
25 9 11 15 12 25 3 11 -9 12 -15 3 -25z m311 6 c0 -6 -33 -10 -80 -10 -47 0
-80 4 -80 10 0 6 33 10 80 10 47 0 80 -4 80 -10z m105 -261 c-8 -12 -72 -12
-79 0 -3 5 4 21 16 36 l22 28 23 -27 c13 -15 21 -32 18 -37z m-11 -85 c14 -14
16 -200 16 -1894 0 -1694 -2 -1880 -16 -1894 -20 -20 -38 -20 -58 0 -14 14
-16 200 -16 1894 0 1694 2 1880 16 1894 8 9 22 16 29 16 7 0 21 -7 29 -16z
m11 -6093 c3 -5 -5 -22 -18 -37 l-23 -27 -22 28 c-12 15 -19 31 -16 36 7 12
71 12 79 0z"/>
<path d="M2207 6664 c-4 -4 -7 -34 -7 -67 0 -53 2 -58 18 -52 22 10 42 10 65
0 16 -7 18 -2 15 56 l-3 64 -40 3 c-23 2 -44 0 -48 -4z"/>
<path d="M11873 6600 c-25 -31 -39 -60 -29 -60 11 0 65 64 66 78 0 19 -13 13
-37 -18z"/>
<path d="M12174 6659 c-3 -5 -14 -9 -24 -9 -24 0 -36 -18 -21 -33 14 -14 15
-47 1 -47 -5 0 -10 -9 -10 -20 0 -11 7 -20 15 -20 8 0 15 5 15 10 0 6 9 10 19
10 11 0 23 -4 26 -10 3 -5 14 -10 23 -10 19 0 45 47 31 56 -5 3 -9 16 -9 29 0
16 -9 28 -30 38 -17 9 -32 11 -36 6z"/>
<path d="M12420 6600 l0 -60 50 0 50 0 0 60 0 60 -50 0 -50 0 0 -60z"/>
<path d="M13073 6646 c-7 -13 -22 -27 -33 -31 l-22 -7 23 -12 c13 -6 28 -21
34 -33 l11 -21 9 21 c6 12 21 27 34 33 23 12 23 12 2 19 -12 3 -27 18 -34 31
l-13 25 -11 -25z"/>
<path d="M9652 6648 c-7 -7 -12 -24 -12 -38 0 -14 5 -31 12 -38 28 -28 88 -2
88 38 0 40 -60 66 -88 38z m51 -45 c-7 -2 -19 -2 -25 0 -7 3 -2 5 12 5 14 0
19 -2 13 -5z"/>
<path d="M12748 6653 c18 -2 45 -2 60 0 15 2 0 4 -33 4 -33 0 -45 -2 -27 -4z"/>
<path d="M12720 6590 l0 -50 70 0 c70 0 98 16 38 22 -28 2 -33 7 -33 28 0 21
5 26 33 28 56 6 24 22 -44 22 l-64 0 0 -50z"/>
<path d="M12810 6585 c0 -9 9 -15 25 -15 16 0 25 6 25 15 0 9 -9 15 -25 15
-16 0 -25 -6 -25 -15z"/>
<path d="M2590 6630 c0 -5 7 -10 15 -10 8 0 15 5 15 10 0 6 -7 10 -15 10 -8 0
-15 -4 -15 -10z"/>
<path d="M3414 6595 c-9 -23 14 -45 26 -25 5 8 8 19 7 24 -6 17 -27 18 -33 1z"/>
<path d="M3920 6570 c0 -5 4 -10 9 -10 6 0 13 5 16 10 3 6 -1 10 -9 10 -9 0
-16 -4 -16 -10z"/>
<path d="M3170 6600 c0 -5 7 -10 16 -10 8 0 12 5 9 10 -3 6 -10 10 -16 10 -5
0 -9 -4 -9 -10z"/>
<path d="M3340 6570 c0 -5 5 -10 10 -10 6 0 10 5 10 10 0 6 -4 10 -10 10 -5 0
-10 -4 -10 -10z"/>
<path d="M3640 6570 c0 -5 4 -10 9 -10 6 0 13 5 16 10 3 6 -1 10 -9 10 -9 0
-16 -4 -16 -10z"/>
<path d="M3793 6594 c-8 -21 13 -42 28 -27 13 13 5 43 -11 43 -6 0 -13 -7 -17
-16z"/>
<path d="M4023 6594 c-8 -21 13 -42 28 -27 13 13 5 43 -11 43 -6 0 -13 -7 -17
-16z"/>
<path d="M4335 6600 c-3 -5 1 -10 9 -10 9 0 16 5 16 10 0 6 -4 10 -9 10 -6 0
-13 -4 -16 -10z"/>
<path d="M2660 6570 c0 -5 7 -10 15 -10 8 0 15 5 15 10 0 6 -7 10 -15 10 -8 0
-15 -4 -15 -10z"/>
<path d="M10713 6155 c-17 -7 -34 -23 -38 -35 -4 -11 -22 -35 -40 -52 -19 -16
-37 -44 -40 -62 -4 -17 -9 -39 -11 -48 -4 -13 0 -18 14 -18 11 0 22 -7 26 -15
3 -8 17 -15 31 -15 14 0 28 7 31 15 4 8 15 15 25 15 15 0 17 5 12 32 -5 27 -4
30 11 25 9 -4 32 -1 50 7 70 29 67 130 -5 155 -18 6 -32 11 -33 11 -1 -1 -15
-7 -33 -15z m62 -65 c0 -31 -3 -35 -25 -35 -21 0 -25 5 -26 30 -2 39 3 47 29
43 18 -2 22 -10 22 -38z m-75 -107 c0 -21 -5 -23 -45 -23 -43 0 -45 1 -45 30
0 17 9 38 22 50 l23 21 22 -28 c13 -15 23 -38 23 -50z m-33 -49 c-3 -3 -12 -4
-19 -1 -8 3 -5 6 6 6 11 1 17 -2 13 -5z"/>
<path d="M1435 6108 c-11 -6 -26 -18 -34 -27 -10 -12 -15 -13 -18 -3 -3 6 -13
12 -23 12 -10 0 -21 4 -25 9 -3 5 -18 8 -33 7 -20 -3 -27 -9 -26 -24 0 -12 -5
-18 -12 -15 -26 10 -23 -17 6 -60 26 -38 30 -55 31 -113 l1 -69 10 63 c8 61 7
66 -23 115 -24 40 -26 47 -10 33 11 -11 21 -14 21 -8 0 7 9 12 20 12 22 0 26
-10 9 -27 -9 -9 -7 -12 10 -10 14 1 19 6 16 17 -2 8 -1 21 4 28 5 9 8 4 9 -15
0 -16 2 -33 3 -38 1 -6 -1 -18 -5 -27 -5 -11 2 -41 19 -80 18 -44 25 -53 21
-30 l-6 34 31 -26 c35 -30 86 -35 96 -10 3 10 1 30 -5 46 -10 27 -9 28 11 22
21 -6 21 -6 5 12 -15 17 -15 23 -2 53 20 48 18 65 -15 100 -30 33 -53 38 -86
19z m69 -19 c16 -12 26 -30 26 -45 0 -22 -3 -24 -22 -19 -13 4 -32 16 -43 26
-19 17 -23 17 -43 3 -24 -17 -29 -7 -9 18 12 15 46 37 58 38 4 0 18 -9 33 -21z
m-37 -59 c14 -11 32 -20 39 -20 8 0 14 -7 14 -15 0 -25 -84 -16 -94 11 -5 14
2 44 11 44 3 0 16 -9 30 -20z m-47 -59 c0 -21 4 -23 29 -18 19 4 33 1 41 -8 9
-11 5 -14 -26 -17 -43 -4 -55 -22 -24 -38 18 -9 25 -8 41 6 17 16 22 16 30 4
27 -43 -20 -64 -64 -30 -29 23 -60 69 -37 55 8 -5 10 -2 7 11 -14 49 -18 89
-8 74 6 -8 11 -26 11 -39z m-29 -24 c-8 -8 -11 -7 -11 4 0 20 13 34 18 19 3
-7 -1 -17 -7 -23z m59 23 c0 -5 -4 -10 -10 -10 -5 0 -10 5 -10 10 0 6 5 10 10
10 6 0 10 -4 10 -10z"/>
<path d="M10142 6013 c-4 -10 -5 -34 -1 -53 l6 -35 2 33 c0 18 6 32 14 32 8 0
7 4 -3 10 -13 9 -13 11 0 20 9 6 11 10 3 10 -7 0 -16 -8 -21 -17z"/>
<path d="M10213 5980 c0 -30 2 -43 4 -27 2 15 2 39 0 55 -2 15 -4 2 -4 -28z"/>
<path d="M11942 6013 c-4 -10 -5 -34 -1 -53 6 -35 6 -35 9 -5 1 17 3 40 4 53
3 27 0 28 -12 5z"/>
<path d="M11982 6013 c-4 -10 -5 -34 -1 -53 l6 -35 2 33 c0 18 6 32 14 32 8 0
7 4 -3 10 -13 9 -13 11 0 20 9 6 11 10 3 10 -7 0 -16 -8 -21 -17z"/>
<path d="M9732 5973 c1 -41 2 -43 5 -13 l5 35 17 -34 18 -33 14 33 14 34 6
-35 c6 -33 6 -32 8 13 1 57 -11 61 -31 10 l-14 -38 -13 38 c-17 51 -31 46 -29
-10z"/>
<path d="M9941 5973 c0 -26 3 -42 6 -35 3 7 16 18 30 23 35 13 28 53 -9 57
-27 3 -28 2 -27 -45z m44 16 c0 -7 -8 -15 -17 -17 -18 -3 -25 18 -11 32 10 10
28 1 28 -15z"/>
<path d="M11071 6006 c-17 -20 -2 -46 25 -46 29 0 41 24 24 45 -16 19 -34 19
-49 1z"/>
<path d="M11240 5975 c0 -42 2 -46 23 -43 19 3 22 9 22 43 0 34 -3 40 -22 43
-21 3 -23 -1 -23 -43z m40 20 c0 -8 -7 -15 -15 -15 -8 0 -15 7 -15 15 0 8 7
15 15 15 8 0 15 -7 15 -15z m0 -40 c0 -8 -7 -15 -15 -15 -8 0 -15 7 -15 15 0
8 7 15 15 15 8 0 15 -7 15 -15z"/>
<path d="M9841 5993 c-1 -7 4 -23 10 -37 10 -20 9 -29 -2 -42 -12 -15 -12 -17
0 -13 13 5 57 99 46 99 -3 0 -10 -12 -16 -27 l-11 -28 -13 30 c-7 17 -14 25
-14 18z"/>
<path d="M10023 5965 c0 -22 2 -30 4 -17 2 12 2 30 0 40 -3 9 -5 -1 -4 -23z"/>
<path d="M10067 5994 c-13 -13 -7 -55 8 -60 21 -9 47 15 43 40 -3 21 -37 34
-51 20z m40 -20 c8 -21 -13 -42 -28 -27 -13 13 -5 43 11 43 6 0 13 -7 17 -16z"/>
<path d="M10183 5965 c0 -22 2 -30 4 -17 2 12 2 30 0 40 -3 9 -5 -1 -4 -23z"/>
<path d="M10249 5984 c-16 -19 -1 -48 27 -51 13 -2 11 1 -6 9 l-25 12 28 4
c29 4 33 12 15 30 -16 16 -23 15 -39 -4z m36 -4 c3 -5 -3 -10 -15 -10 -12 0
-18 5 -15 10 3 6 10 10 15 10 5 0 12 -4 15 -10z"/>
<path d="M11311 5980 c-1 -34 11 -49 37 -47 18 1 22 7 21 37 l-1 35 -7 -30
c-3 -17 -13 -30 -21 -30 -8 0 -18 13 -21 30 -6 27 -7 27 -8 5z"/>
<path d="M11385 5987 c16 -59 17 -70 4 -79 -12 -8 -11 -9 1 -5 14 3 56 97 45
97 -3 0 -10 -12 -16 -27 l-11 -28 -14 30 c-8 17 -12 22 -9 12z"/>
<path d="M11493 5965 c0 -22 2 -30 4 -17 2 12 2 30 0 40 -3 9 -5 -1 -4 -23z"/>
<path d="M11517 5989 c6 -8 13 -25 16 -39 4 -17 5 -15 4 9 -1 21 -8 36 -17 39
-12 4 -13 2 -3 -9z"/>
<path d="M11557 5989 c6 -8 13 -25 16 -39 4 -17 5 -15 4 9 -1 21 -8 36 -17 39
-12 4 -13 2 -3 -9z"/>
<path d="M11600 5985 c-17 -20 -2 -49 26 -52 13 -2 11 1 -6 9 l-25 12 28 4
c20 2 27 8 25 20 -4 23 -32 26 -48 7z m35 -5 c3 -5 -3 -10 -15 -10 -12 0 -18
5 -15 10 3 6 10 10 15 10 5 0 12 -4 15 -10z"/>
<path d="M11724 5987 c18 -13 18 -14 -3 -20 -31 -8 -27 -37 5 -37 23 0 25 3
22 32 -2 24 -9 34 -23 36 -19 4 -20 3 -1 -11z m11 -37 c-3 -5 -10 -10 -16 -10
-5 0 -9 5 -9 10 0 6 7 10 16 10 8 0 12 -4 9 -10z"/>
<path d="M11804 5986 c-10 -25 0 -51 21 -54 18 -2 19 -2 3 8 -10 6 -18 17 -18
25 0 8 8 19 18 24 16 10 16 10 -1 11 -10 0 -20 -6 -23 -14z"/>
<path d="M11867 5994 c-13 -13 -7 -55 9 -61 24 -9 51 23 38 45 -12 19 -36 27
-47 16z m38 -29 c0 -11 -8 -21 -17 -23 -14 -3 -18 3 -18 23 0 20 4 26 18 23 9
-2 17 -12 17 -23z"/>
<path d="M12024 5986 c-9 -23 0 -51 16 -52 9 0 10 1 3 3 -21 7 -15 23 8 23 14
0 19 5 17 17 -4 23 -36 29 -44 9z m36 -6 c0 -5 -7 -10 -15 -10 -8 0 -15 5 -15
10 0 6 7 10 15 10 8 0 15 -4 15 -10z"/>
<path d="M12090 5985 c-17 -20 -2 -49 26 -52 13 -2 11 1 -6 9 l-25 12 28 4
c20 2 27 8 25 20 -4 23 -32 26 -48 7z m35 -5 c3 -5 -3 -10 -15 -10 -12 0 -18
5 -15 10 3 6 10 10 15 10 5 0 12 -4 15 -10z"/>
<path d="M6000 3828 c-1 -154 -2 -503 -1 -530 1 -28 2 -28 66 -28 l65 0 0 108
0 107 23 -36 c12 -20 43 -68 69 -108 l48 -71 55 0 c55 0 55 0 55 30 0 34 -15
60 -77 138 -24 29 -43 55 -43 58 0 3 27 41 60 84 33 43 60 88 60 99 0 19 -6
21 -65 21 -36 0 -65 -4 -65 -9 0 -4 -26 -48 -57 -97 l-58 -89 -3 203 -2 202
-65 0 -65 0 0 -82z"/>
<path d="M7830 3590 l0 -320 65 0 65 0 0 320 0 320 -65 0 -65 0 0 -320z"/>
<path d="M8030 3590 l0 -320 65 0 65 0 0 320 0 320 -65 0 -65 0 0 -320z"/>
<path d="M5298 3733 c-2 -76 -2 -211 0 -300 l3 -163 64 0 65 0 1 75 c0 41 1
109 1 150 0 41 -1 143 -1 225 l-1 150 -65 0 -64 0 -3 -137z"/>
<path d="M6567 3743 c18 -71 50 -189 70 -263 20 -74 39 -151 42 -170 l6 -35
80 -3 80 -3 53 203 c30 112 56 210 59 218 4 12 49 -145 105 -372 l11 -48 73 0
73 0 11 43 c6 23 13 49 16 57 28 80 104 411 104 450 l0 50 -49 0 c-30 0 -51
-5 -53 -12 -3 -7 -24 -106 -48 -221 -24 -114 -47 -204 -51 -200 -4 5 -25 87
-48 183 -23 96 -46 192 -52 213 l-10 37 -69 0 -69 0 -15 -52 c-64 -222 -80
-281 -94 -342 l-17 -69 -14 74 c-7 41 -29 143 -47 228 -19 85 -34 155 -34 157
0 2 -33 4 -73 4 l-74 0 34 -127z"/>
<path d="M5745 3703 c-11 -3 -37 -18 -57 -34 l-38 -30 0 31 0 30 -64 0 -64 0
-4 -77 c-2 -43 -2 -140 0 -215 l3 -138 65 0 64 0 0 136 c0 136 6 166 39 191
40 31 109 0 112 -49 2 -21 6 -147 8 -240 l1 -38 60 0 60 0 1 33 c8 279 -8 364
-75 392 -35 15 -71 17 -111 8z"/>
<path d="M7525 3699 c-81 -31 -132 -100 -142 -195 -6 -58 16 -145 45 -178 51
-56 170 -80 265 -52 l57 17 0 45 c0 40 -2 45 -17 39 -107 -43 -195 -22 -218
53 l-6 22 130 0 131 0 0 76 c0 87 -18 127 -70 158 -38 22 -133 30 -175 15z
m125 -99 c11 -11 20 -31 20 -45 0 -25 -1 -25 -81 -25 -79 0 -80 0 -74 23 20
63 93 89 135 47z"/>
<path d="M1010 3180 c53 -25 402 -142 407 -137 6 7 -146 63 -286 107 -173 54
-174 54 -121 30z"/>
<path d="M24 3015 c20 -15 242 -98 291 -109 53 -11 5 10 -110 49 -60 21 -127
46 -147 56 -44 22 -61 24 -34 4z"/>
<path d="M8114 2697 c-3 -8 -3 -47 -1 -88 l3 -74 2 83 2 82 70 0 70 0 0 -67 0
-66 -25 23 c-47 44 -45 -7 2 -54 15 -15 29 -23 33 -19 3 4 3 49 0 98 l-5 90
-73 3 c-54 2 -74 -1 -78 -11z m130 -129 c9 -12 16 -26 16 -31 0 -13 -29 12
-41 35 -14 26 6 23 25 -4z"/>
<path d="M5860 2646 c0 -19 -4 -23 -20 -19 -14 4 -23 -2 -31 -21 -16 -33 1
-55 42 -54 29 1 29 2 29 60 0 32 -4 58 -10 58 -5 0 -10 -11 -10 -24z m-2 -62
c-4 -25 -32 -24 -36 0 -4 21 18 40 31 27 5 -5 7 -17 5 -27z"/>
<path d="M7700 2660 c0 -5 5 -10 10 -10 6 0 10 5 10 10 0 6 -4 10 -10 10 -5 0
-10 -4 -10 -10z"/>
<path d="M7800 2660 c0 -5 5 -10 10 -10 6 0 10 5 10 10 0 6 -4 10 -10 10 -5 0
-10 -4 -10 -10z"/>
<path d="M5151 2646 c-10 -12 -8 -19 8 -35 12 -12 26 -21 31 -21 6 0 10 -4 10
-10 0 -5 -14 -10 -32 -10 -23 0 -29 -3 -21 -11 18 -18 58 -7 61 18 2 16 -4 26
-22 35 -33 14 -33 28 -1 28 14 0 25 5 25 10 0 15 -46 12 -59 -4z"/>
<path d="M5540 2606 c0 -31 5 -56 10 -56 6 0 10 9 10 20 0 26 15 25 34 -2 9
-12 19 -19 22 -15 4 4 -1 16 -11 27 -11 12 -14 20 -6 20 8 0 11 11 9 28 -2 22
-8 28 -35 30 l-33 3 0 -55z m58 22 c-7 -19 -38 -22 -38 -4 0 10 9 16 21 16 12
0 19 -5 17 -12z"/>
<path d="M7103 2653 c-22 -8 -14 -39 12 -51 14 -6 25 -16 25 -22 0 -5 -11 -10
-25 -10 -14 0 -25 -4 -25 -10 0 -16 46 -11 61 6 12 14 10 19 -14 38 -32 26
-34 36 -7 36 11 0 20 5 20 10 0 10 -26 12 -47 3z"/>
<path d="M7485 2628 c19 -84 40 -102 51 -43 3 19 10 35 15 35 4 0 11 -16 15
-35 3 -19 12 -35 18 -35 10 0 36 72 36 101 0 24 -18 -4 -25 -38 l-8 -38 -12
39 c-15 52 -32 56 -41 12 -9 -51 -21 -53 -29 -6 -4 22 -11 40 -17 40 -6 0 -7
-13 -3 -32z"/>
<path d="M5232 2634 c-7 -8 -8 -15 -2 -19 6 -3 10 -19 10 -36 0 -21 5 -29 17
-29 13 0 14 3 5 12 -14 14 -16 55 -3 60 5 2 4 8 -3 14 -8 8 -15 7 -24 -2z"/>
<path d="M5443 2639 c-5 -5 -7 -26 -4 -47 5 -26 12 -38 26 -40 16 -3 18 -1 8
9 -15 15 -17 56 -4 61 5 2 3 8 -4 15 -8 7 -16 8 -22 2z"/>
<path d="M7178 2638 c-2 -7 -2 -29 2 -48 3 -25 11 -35 25 -37 11 -2 14 0 8 3
-16 7 -17 64 -2 64 6 0 4 7 -5 15 -18 18 -23 19 -28 3z"/>
<path d="M7382 2633 c-7 -7 -8 -13 -3 -13 5 0 11 -14 13 -32 2 -17 9 -33 16
-36 11 -3 11 -1 0 17 -9 16 -10 25 -2 39 15 24 -6 45 -24 25z"/>
<path d="M7742 2633 c-7 -7 -8 -13 -3 -13 5 0 11 -14 13 -32 2 -17 9 -33 16
-36 11 -3 11 -1 0 17 -9 16 -10 25 -2 39 15 24 -6 45 -24 25z"/>
<path d="M8173 2633 c15 -2 37 -2 50 0 12 2 0 4 -28 4 -27 0 -38 -2 -22 -4z"/>
<path d="M5294 2619 c-4 -8 -3 -9 4 -5 7 4 17 4 23 0 7 -4 2 -11 -13 -18 -35
-17 -29 -41 10 -43 32 -1 33 0 30 35 -2 29 -8 38 -25 40 -11 2 -24 -2 -29 -9z
m36 -37 c0 -13 -12 -22 -22 -16 -10 6 -1 24 13 24 5 0 9 -4 9 -8z"/>
<path d="M5370 2589 c0 -22 5 -39 10 -39 6 0 10 13 10 30 0 17 7 33 17 38 13
8 11 10 -10 10 -25 0 -27 -4 -27 -39z"/>
<path d="M5639 2606 c-9 -20 -9 -29 1 -41 15 -18 46 -20 56 -3 4 6 3 8 -4 5
-12 -8 -42 2 -42 14 0 5 12 9 26 9 19 0 25 5 22 18 -5 28 -46 27 -59 -2z m46
4 c3 -5 -3 -10 -15 -10 -12 0 -18 5 -15 10 3 6 10 10 15 10 5 0 12 -4 15 -10z"/>
<path d="M5730 2621 c0 -6 6 -8 14 -5 8 3 17 1 20 -4 3 -6 -6 -13 -20 -16 -35
-9 -28 -41 9 -42 26 -1 28 1 25 35 -2 29 -8 37 -25 39 -13 2 -23 -1 -23 -7z
m40 -40 c0 -14 -18 -23 -30 -16 -6 4 -8 11 -5 16 8 12 35 12 35 0z"/>
<path d="M5913 2590 c0 -25 2 -35 4 -22 2 12 2 32 0 45 -2 12 -4 2 -4 -23z"/>
<path d="M5951 2585 c1 -28 3 -32 6 -15 10 55 43 62 43 9 0 -16 5 -29 10 -29
12 0 13 49 2 67 -4 6 -19 10 -35 10 -25 -2 -27 -5 -26 -42z"/>
<path d="M6052 2621 c-8 -5 -12 -21 -10 -37 2 -24 7 -29 31 -29 15 1 27 -2 27
-6 0 -15 -29 -29 -46 -23 -15 6 -17 4 -7 -6 7 -8 22 -10 37 -6 24 6 26 11 26
59 0 47 -2 53 -22 54 -13 1 -29 -1 -36 -6z m48 -26 c0 -7 -6 -18 -14 -24 -20
-17 -44 13 -26 33 13 17 40 10 40 -9z"/>
<path d="M7240 2621 c0 -6 6 -8 14 -5 8 3 17 1 20 -4 3 -6 -6 -13 -20 -16 -35
-9 -28 -41 9 -42 26 -1 28 1 25 35 -2 29 -8 37 -25 39 -13 2 -23 -1 -23 -7z
m40 -40 c0 -14 -18 -23 -30 -16 -6 4 -8 11 -5 16 8 12 35 12 35 0z"/>
<path d="M7321 2588 l1 -43 8 34 c4 18 14 37 22 42 9 6 7 9 -9 9 -20 0 -23 -5
-22 -42z"/>
<path d="M7640 2589 c0 -22 5 -39 10 -39 6 0 10 13 10 30 0 17 7 33 17 38 13
8 11 10 -10 10 -25 0 -27 -4 -27 -39z"/>
<path d="M7700 2590 c0 -22 5 -40 10 -40 6 0 10 18 10 40 0 22 -4 40 -10 40
-5 0 -10 -18 -10 -40z"/>
<path d="M7800 2590 c0 -22 5 -40 10 -40 6 0 10 18 10 40 0 22 -4 40 -10 40
-5 0 -10 -18 -10 -40z"/>
<path d="M7851 2585 c2 -34 3 -35 6 -10 8 53 43 56 43 4 0 -16 5 -29 10 -29
15 0 12 56 -3 68 -7 6 -23 10 -35 9 -19 -1 -22 -7 -21 -42z"/>
<path d="M7944 2616 c-3 -8 -4 -25 -2 -38 2 -18 9 -23 31 -21 24 2 26 0 16
-18 -7 -14 -16 -18 -31 -13 -14 4 -18 2 -14 -5 9 -15 39 -14 54 1 7 7 12 33
12 58 0 44 -1 46 -30 48 -19 1 -33 -3 -36 -12z m45 -42 c-14 -14 -17 -14 -29
0 -10 13 -10 19 0 32 12 14 15 14 29 0 14 -15 14 -17 0 -32z"/>
<path d="M2089 2585 c30 -14 80 -33 110 -42 31 -8 63 -18 71 -20 42 -12 -32
23 -99 47 -106 38 -149 46 -82 15z"/>
<path d="M6265 2601 l-50 -7 53 -4 c37 -4 52 -2 52 8 0 6 -1 11 -2 10 -2 0
-25 -4 -53 -7z"/>
<path d="M1300 2429 c162 -54 299 -99 305 -98 5 0 -123 45 -285 100 -162 54
-299 99 -305 98 -5 0 123 -45 285 -100z"/>
<path d="M2430 2496 c0 -7 150 -59 156 -53 3 3 -19 14 -48 25 -60 22 -108 34
-108 28z"/>
<path d="M1770 2416 c0 -5 214 -76 227 -76 18 1 -30 21 -118 50 -94 30 -109
34 -109 26z"/>
<path d="M2765 2401 c22 -10 54 -21 70 -24 26 -5 24 -4 -10 12 -22 10 -53 21
-70 24 -26 5 -24 4 10 -12z"/>
<path d="M8009 2325 c18 -8 41 -15 50 -15 27 1 -31 29 -59 29 -23 0 -22 -1 9
-14z"/>
<path d="M2271 2136 c8 -8 131 -47 136 -43 2 3 -24 14 -58 26 -60 20 -87 26
-78 17z"/>
<path d="M3220 2026 c0 -6 68 -37 101 -46 40 -12 36 -4 -8 18 -38 19 -93 36
-93 28z"/>
<path d="M2745 2000 c11 -5 27 -9 35 -9 9 0 8 4 -5 9 -11 5 -27 9 -35 9 -9 0
-8 -4 5 -9z"/>
<path d="M3445 1960 c22 -11 47 -19 55 -19 21 0 -29 25 -65 32 -26 5 -25 4 10
-13z"/>
<path d="M3602 1925 c3 -3 21 -10 39 -15 31 -9 32 -8 15 5 -18 14 -66 22 -54
10z"/>
<path d="M2680 1886 c0 -6 103 -36 108 -32 3 4 -86 36 -100 36 -4 0 -8 -2 -8
-4z"/>
<path d="M3050 1785 c14 -8 34 -14 45 -14 15 1 13 4 -10 14 -40 19 -67 18 -35
0z"/>
<path d="M3660 1776 c28 -17 60 -22 45 -7 -6 5 -23 12 -40 16 l-30 6 25 -15z"/>
<path d="M3810 1740 c8 -5 22 -10 30 -10 13 0 13 1 0 10 -8 5 -22 10 -30 10
-13 0 -13 -1 0 -10z"/>
<path d="M3315 1720 c27 -12 43 -12 25 0 -8 5 -22 9 -30 9 -10 0 -8 -3 5 -9z"/>
<path d="M3315 1585 c34 -16 72 -21 45 -6 -8 5 -28 11 -45 14 l-30 6 30 -14z"/>
<path d="M4006 1561 c5 -5 23 -12 39 -16 l30 -6 -25 15 c-28 17 -60 22 -44 7z"/>
<path d="M3560 1526 c14 -9 32 -15 40 -15 13 0 13 1 0 8 -8 5 -26 12 -40 15
l-25 7 25 -15z"/>
<path d="M4140 1530 c8 -5 22 -10 30 -10 13 0 13 1 0 10 -8 5 -22 10 -30 10
-13 0 -13 -1 0 -10z"/>
<path d="M3755 1480 c3 -5 14 -10 23 -10 15 0 15 2 2 10 -20 13 -33 13 -25 0z"/>
<path d="M4320 1356 c28 -17 60 -22 45 -7 -6 5 -23 12 -40 16 l-30 6 25 -15z"/>
<path d="M3780 1342 c8 -5 26 -13 40 -16 17 -5 20 -4 10 2 -8 5 -26 13 -40 16
-17 5 -20 4 -10 -2z"/>
<path d="M4424 1332 c3 -5 17 -12 32 -15 30 -5 20 8 -15 18 -15 4 -21 3 -17
-3z"/>
<path d="M3970 1296 c14 -9 32 -15 40 -15 13 0 13 1 0 8 -8 5 -26 12 -40 15
l-25 7 25 -15z"/>
<path d="M4130 1260 c8 -5 22 -9 30 -9 10 0 8 3 -5 9 -27 12 -43 12 -25 0z"/>
<path d="M4650 1124 c0 -8 71 -36 78 -30 3 3 -11 13 -31 21 -40 16 -47 18 -47
9z"/>
<path d="M4780 1080 c8 -5 20 -10 25 -10 6 0 3 5 -5 10 -8 5 -19 10 -25 10 -5
0 -3 -5 5 -10z"/>
<path d="M4630 837 c0 -3 15 -10 32 -16 18 -6 28 -7 23 -2 -12 10 -55 25 -55
18z"/>
<path d="M4796 781 c5 -5 20 -12 34 -15 l25 -7 -25 15 c-28 17 -50 21 -34 7z"/>
<path d="M5330 605 c0 -8 77 -40 115 -48 20 -4 12 2 -22 17 -62 29 -93 39 -93
31z"/>
<path d="M5615 390 c10 -11 20 -20 23 -20 3 0 -3 9 -13 20 -10 11 -20 20 -23
20 -3 0 3 -9 13 -20z"/>
<path d="M12242 382 c3 -7 244 -230 368 -340 27 -24 53 -42 58 -40 13 5 -402
387 -421 388 -5 0 -7 -4 -5 -8z"/>
<path d="M5665 351 c18 -22 18 -24 2 -18 -32 12 1 -23 123 -132 63 -56 114
-107 113 -111 -5 -17 103 -85 136 -87 24 -2 24 -2 5 16 -29 27 -335 301 -369
330 -29 25 -29 25 -10 2z m195 -181 l115 -111 -130 112 c-164 141 -169 146
-130 126 17 -9 82 -66 145 -127z"/>
</g>
</svg>
